/* XPM */
static char * closeufcs_xpm[] = {
"18 18 51 1",
" 	c None",
".	c #DFD7CF",
"+	c #71706F",
"@	c #706E6D",
"#	c #B6B4B2",
"$	c #161515",
"%	c #0E0E0E",
"&	c #B2B0AF",
"*	c #1B1B1B",
"=	c #141414",
"-	c #B5B2B1",
";	c #C4C2C0",
">	c #C6C3C1",
",	c #C0BDBC",
"'	c #1B1B1A",
")	c #131313",
"!	c #A19F9D",
"~	c #CDC9C6",
"{	c #C7C4C2",
"]	c #807E7D",
"^	c #1F1E1E",
"/	c #252424",
"(	c #262525",
"_	c #111111",
":	c #0B0B0B",
"<	c #201F1F",
"[	c #232222",
"}	c #494848",
"|	c #7B7A79",
"1	c #252524",
"2	c #2A2A29",
"3	c #2C2B2A",
"4	c #0D0D0D",
"5	c #0C0C0C",
"6	c #262626",
"7	c #282827",
"8	c #535251",
"9	c #CDCAC7",
"0	c #C0BEBD",
"a	c #C2C0BE",
"b	c #BEBBBA",
"c	c #A6A4A3",
"d	c #C4C1C0",
"e	c #C1BFBD",
"f	c #BFBCBB",
"g	c #1A1A1A",
"h	c #B4B2B0",
"i	c #161616",
"j	c #B2B0AE",
"k	c #686665",
"l	c #B8B5B3",
"..................",
"..................",
"..................",
"..................",
"........+@#.......",
"........$%&.......",
"........*=-.......",
".....;>,')!~;{....",
"....]^/(_:</[}....",
"....|123456278....",
"....90ab*)cdef....",
"........g=h.......",
"........i%j.......",
"........k+l.......",
"..................",
"..................",
"..................",
".................."};
