/* XPM */
static char * closepr_xpm[] = {
"15 15 160 2",
"  	c None",
". 	c #DEDBD9",
"+ 	c #DEDAD8",
"@ 	c #DDDAD8",
"# 	c #DDDBD9",
"$ 	c #DED8D6",
"% 	c #DCD4CE",
"& 	c #DBCEC7",
"* 	c #DACBC4",
"= 	c #DBCDC7",
"- 	c #DCD2CD",
"; 	c #DDD8D6",
"> 	c #DECDC5",
", 	c #D7AB99",
"' 	c #CC866B",
") 	c #C66F4C",
"! 	c #C76A45",
"~ 	c #C66D49",
"{ 	c #CB8264",
"] 	c #D4A38F",
"^ 	c #DBC8BF",
"/ 	c #DFC4B9",
"( 	c #CC886C",
"_ 	c #BE6643",
": 	c #CC8165",
"< 	c #CB8163",
"[ 	c #D28B6E",
"} 	c #CD8365",
"| 	c #CD8164",
"1 	c #C1653F",
"2 	c #C47758",
"3 	c #D7BAAE",
"4 	c #DECDC4",
"5 	c #CC876B",
"6 	c #C26A46",
"7 	c #D69177",
"8 	c #E1A58F",
"9 	c #E3A68F",
"0 	c #E9AB93",
"a 	c #E1A58E",
"b 	c #D9957B",
"c 	c #CB7756",
"d 	c #BE7355",
"e 	c #D8C6BF",
"f 	c #D6A996",
"g 	c #C06945",
"h 	c #D79378",
"i 	c #E0A38C",
"j 	c #C9917B",
"k 	c #7A503F",
"l 	c #C78F79",
"m 	c #DE9A80",
"n 	c #C56945",
"o 	c #C99C89",
"p 	c #DCD8D5",
"q 	c #DCD3CE",
"r 	c #CB8265",
"s 	c #CC8163",
"t 	c #E1A38C",
"u 	c #B78774",
"v 	c #262220",
"w 	c #B48472",
"x 	c #E0A58E",
"y 	c #D18163",
"z 	c #BF7658",
"A 	c #D9D0CC",
"B 	c #DBCBC5",
"C 	c #C66A44",
"D 	c #CF886B",
"E 	c #E2A68F",
"F 	c #C7907B",
"G 	c #B68979",
"H 	c #987466",
"I 	c #292523",
"J 	c #957164",
"K 	c #B68A78",
"L 	c #C88F79",
"M 	c #E1A48D",
"N 	c #E2A28A",
"O 	c #C26F4E",
"P 	c #D7C9C3",
"Q 	c #DAC7BF",
"R 	c #C66239",
"S 	c #D79175",
"T 	c #E7AA93",
"U 	c #88543F",
"V 	c #3E322D",
"W 	c #3A322E",
"X 	c #282829",
"Y 	c #37302C",
"Z 	c #3D322D",
"` 	c #8E543B",
" .	c #E6A993",
"..	c #E49B7F",
"+.	c #C36640",
"@.	c #D5C7C0",
"#.	c #DAC9C2",
"$.	c #C1643D",
"%.	c #D38B6E",
"&.	c #E2A58F",
"*.	c #D09179",
"=.	c #C08974",
"-.	c #9C7262",
";.	c #9A705F",
">.	c #D19279",
",.	c #E1A48E",
"'.	c #E49D82",
").	c #C3714F",
"!.	c #DAD0CB",
"~.	c #C17557",
"{.	c #CE8062",
"].	c #B88774",
"^.	c #2C2420",
"/.	c #B68572",
"(.	c #E0A48E",
"_.	c #DB8E6F",
":.	c #C38267",
"<.	c #DAD1CD",
"[.	c #C99C8B",
"}.	c #C0643F",
"|.	c #DC987D",
"1.	c #D1927A",
"2.	c #9F593D",
"3.	c #E39D81",
"4.	c #D17853",
"5.	c #C9A394",
"6.	c #DCD8D6",
"7.	c #D6C8C1",
"8.	c #BA7558",
"9.	c #CC7C5E",
"0.	c #E0A48D",
"a.	c #E5A993",
"b.	c #E39D82",
"c.	c #D97C57",
"d.	c #BE8268",
"e.	c #D5CAC4",
"f.	c #D1BCB3",
"g.	c #BB7659",
"h.	c #C97C5D",
"i.	c #D68769",
"j.	c #E29E83",
"k.	c #E49A7D",
"l.	c #E29F85",
"m.	c #D88B6E",
"n.	c #CF7854",
"o.	c #BE836A",
"p.	c #D1BFB8",
"q.	c #DEDBDA",
"r.	c #D6CAC4",
"s.	c #C7A090",
"t.	c #C28368",
"u.	c #C07557",
"v.	c #BF6B49",
"w.	c #C17759",
"x.	c #C4876E",
"y.	c #C8A596",
"z.	c #D6CBC6",
"A.	c #DAD2CF",
"B.	c #D7CBC6",
"C.	c #D5C9C2",
". + @ # $ % & * = - ; . @ @ . ",
"+ @ . > , ' ) ! ~ { ] ^ . @ @ ",
"@ . / ( _ : < [ } | 1 2 3 . @ ",
"@ 4 5 6 7 8 9 0 9 a b c d e . ",
"$ f g h i i j k l i i m n o p ",
"q r s 8 i t u v w t i x y z A ",
"B C D E F G H I J K L M N O P ",
"Q R S T U V W X Y Z `  ...+.@.",
"#.$.%.&.*.=.-.v ;.=.>.,.'.).P ",
"!.~.{.8 i t ].^./.t i (._.:.<.",
"p [.}.|.i i 1.2.*.i i 3.4.5.6.",
". 7.8.9.i 0.,.a.M (.b.c.d.e.. ",
"@ . f.g.h.i.j.k.l.m.n.o.p.q.@ ",
"@ @ . r.s.t.u.v.w.x.y.z.q.@ @ ",
". @ @ . 6.A.B.C.B.A.6.. @ @ . "};
