/* XPM */
static char * closefcs_xpm[] = {
"15 15 174 2",
"  	c None",
". 	c #DEDBD9",
"+ 	c #DEDAD8",
"@ 	c #DDDAD8",
"# 	c #DDDBD9",
"$ 	c #DED8D6",
"% 	c #DCD4CE",
"& 	c #DBCEC7",
"* 	c #DACBC4",
"= 	c #DBCDC7",
"- 	c #DCD2CD",
"; 	c #DDD8D6",
"> 	c #DECDC5",
", 	c #D7AB99",
"' 	c #CC876C",
") 	c #C5704D",
"! 	c #C66B47",
"~ 	c #C56E4B",
"{ 	c #CB8366",
"] 	c #D4A38F",
"^ 	c #DBC8BF",
"/ 	c #DFC4B9",
"( 	c #CC886C",
"_ 	c #BD6947",
": 	c #CD724E",
"< 	c #D46F46",
"[ 	c #DC784F",
"} 	c #D67148",
"| 	c #D1724C",
"1 	c #C06844",
"2 	c #C57859",
"3 	c #D7BAAD",
"4 	c #DECDC4",
"5 	c #CC876B",
"6 	c #C06E4D",
"7 	c #DE784F",
"8 	c #ED7D50",
"9 	c #EE7D4F",
"0 	c #EF7F52",
"a 	c #EE7C4E",
"b 	c #E37B50",
"c 	c #C66D4A",
"d 	c #BF7456",
"e 	c #D8C6BF",
"f 	c #D6A996",
"g 	c #BF6C4A",
"h 	c #DF7950",
"i 	c #EC7A4D",
"j 	c #EA7C50",
"k 	c #D07450",
"l 	c #795242",
"m 	c #CE724D",
"n 	c #EB7D4F",
"o 	c #ED794B",
"p 	c #E77D52",
"q 	c #C36845",
"r 	c #C99C8A",
"s 	c #DCD8D5",
"t 	c #DCD3CE",
"u 	c #CF714B",
"v 	c #ED7D4F",
"w 	c #EA7D50",
"x 	c #EC8157",
"y 	c #BC6E4E",
"z 	c #252727",
"A 	c #BB6A4A",
"B 	c #ED7F55",
"C 	c #EB7C4F",
"D 	c #EE7B4D",
"E 	c #D96F45",
"F 	c #BE7759",
"G 	c #D9D0CC",
"H 	c #DBCBC5",
"I 	c #C66B46",
"J 	c #D8764D",
"K 	c #CE7451",
"L 	c #BB7053",
"M 	c #99634D",
"N 	c #292828",
"O 	c #965F4A",
"P 	c #BB7052",
"Q 	c #CF734E",
"R 	c #EE7A4B",
"S 	c #E97F54",
"T 	c #C06945",
"U 	c #D7C9C3",
"V 	c #DAC7BF",
"W 	c #C5633B",
"X 	c #E17F56",
"Y 	c #F17E50",
"Z 	c #875542",
"` 	c #3D3634",
" .	c #393533",
"..	c #282828",
"+.	c #373330",
"@.	c #3C3633",
"#.	c #8D553E",
"$.	c #F27B4C",
"%.	c #ED8359",
"&.	c #C36640",
"*.	c #D5C7C0",
"=.	c #DAC9C2",
"-.	c #C1653F",
";.	c #DC7850",
">.	c #D7754F",
",.	c #C6704E",
"'.	c #A06148",
").	c #252525",
"!.	c #9E5E45",
"~.	c #C7704D",
"{.	c #DA754D",
"].	c #EC8257",
"^.	c #C36F4D",
"/.	c #DAD0CB",
"(.	c #C07658",
"_.	c #D3714A",
":.	c #EE7D50",
"<.	c #EA7D51",
"[.	c #EB8157",
"}.	c #BE6F4F",
"|.	c #2B2826",
"1.	c #BB6B4B",
"2.	c #ED8156",
"3.	c #E37C52",
"4.	c #C38369",
"5.	c #DAD1CD",
"6.	c #C99C8B",
"7.	c #BF6743",
"8.	c #E67D53",
"9.	c #EB7A4D",
"0.	c #D8774F",
"a.	c #9F5B40",
"b.	c #D8744E",
"c.	c #EC794A",
"d.	c #ED8256",
"e.	c #D07B58",
"f.	c #C9A394",
"g.	c #DCD8D6",
"h.	c #D6C8C1",
"i.	c #BA765A",
"j.	c #CA704C",
"k.	c #E97F55",
"l.	c #ED7C4F",
"m.	c #EF7C4E",
"n.	c #F9804F",
"o.	c #F07B4D",
"p.	c #ED7B4D",
"q.	c #D7815E",
"r.	c #BE8268",
"s.	c #D5CAC4",
"t.	c #D1BCB3",
"u.	c #BB795D",
"v.	c #C76C48",
"w.	c #DC7951",
"x.	c #E78057",
"y.	c #EB875D",
"z.	c #E98259",
"A.	c #DF7B54",
"B.	c #CE7B59",
"C.	c #BE836A",
"D.	c #D1BFB8",
"E.	c #DEDBDA",
"F.	c #D6CAC4",
"G.	c #C8A191",
"H.	c #C28469",
"I.	c #BF7153",
"J.	c #BF6D4C",
"K.	c #C07455",
"L.	c #C4886F",
"M.	c #C8A596",
"N.	c #D6CBC6",
"O.	c #DAD2CF",
"P.	c #D7CBC6",
"Q.	c #D5C8C2",
". + @ # $ % & * = - ; . @ @ . ",
"+ @ . > , ' ) ! ~ { ] ^ . @ @ ",
"@ . / ( _ : < [ } | 1 2 3 . @ ",
"@ 4 5 6 7 8 9 0 9 a b c d e . ",
"$ f g h i j k l m n o p q r s ",
"t { u v w x y z A B C D E F G ",
"H I J 9 K L M N O P Q R S T U ",
"V W X Y Z `  ...+.@.#.$.%.&.*.",
"=.-.;.9 >.,.'.).!.~.{.R ].^.U ",
"/.(._.:.<.[.}.|.1.2.C R 3.4.5.",
"s 6.7.8.9.<.0.a.b.C c.d.e.f.g.",
". h.i.j.k.l.m.n.o.p.%.q.r.s.. ",
"@ . t.u.v.w.x.y.z.A.B.C.D.E.@ ",
"@ @ . F.G.H.I.J.K.L.M.N.E.@ @ ",
". @ @ . g.O.P.Q.P.O.g.. @ @ . "};
