/* XPM */
static char * frame_xpm[] = {
"20 20 93 2",
"  	c None",
". 	c #EDE6DC",
"+ 	c #ECE5DC",
"@ 	c #EDE5DB",
"# 	c #ECE4DB",
"$ 	c #EBE4DB",
"% 	c #EBE4DA",
"& 	c #EBE3DA",
"* 	c #EAE2D9",
"= 	c #E9E1D9",
"- 	c #E9E1D8",
"; 	c #E8E1D7",
"> 	c #E8E0D7",
", 	c #E7DFD7",
"' 	c #E6DFD6",
") 	c #E6DED5",
"! 	c #E5DED4",
"~ 	c #E5DDD4",
"{ 	c #E4DDD4",
"] 	c #EAE3D9",
"^ 	c #EAE2D8",
"/ 	c #EAE1D8",
"( 	c #E8E1D8",
"_ 	c #E7E0D6",
": 	c #E7DFD6",
"< 	c #E4DCD4",
"[ 	c #E3DCD3",
"} 	c #E3DBD3",
"| 	c #E3DBD2",
"1 	c #E2DAD2",
"2 	c #E2DAD1",
"3 	c #E5DED5",
"4 	c #E5DCD4",
"5 	c #E2DBD3",
"6 	c #E1D9D1",
"7 	c #E1D8D0",
"8 	c #E0D8D0",
"9 	c #DFD8D0",
"0 	c #DFD7CF",
"a 	c #E4DCD3",
"b 	c #E2DBD2",
"c 	c #E1DAD1",
"d 	c #DFD7D0",
"e 	c #E2D9D1",
"f 	c #E0D8CF",
"g 	c #E0D7D0",
"h 	c #E5DCD3",
"i 	c #E6DED6",
"j 	c #E1D9D0",
"k 	c #E3DAD2",
"l 	c #E5DDD5",
"m 	c #E9E0D8",
"n 	c #E9E2D8",
"o 	c #EBE3D9",
"p 	c #ECE5DB",
"q 	c #E7E0D7",
"r 	c #EAE3DA",
"s 	c #ECE4DA",
"t 	c #EDE5DC",
"u 	c #EEE6DC",
"v 	c #EEE7DC",
"w 	c #EEE8DD",
"x 	c #EFE8DD",
"y 	c #F0E8DE",
"z 	c #F0E8DF",
"A 	c #EEE7DD",
"B 	c #EEE7DE",
"C 	c #EFE8DE",
"D 	c #F0E9DF",
"E 	c #F1E9DF",
"F 	c #F1EAE0",
"G 	c #F2EADF",
"H 	c #F2EAE0",
"I 	c #F3ECE0",
"J 	c #F3ECE1",
"K 	c #F3ECE2",
"L 	c #EFE7DE",
"M 	c #F0E9DE",
"N 	c #F1E9E0",
"O 	c #F2EAE1",
"P 	c #F2EBE1",
"Q 	c #F2ECE1",
"R 	c #F4ECE2",
"S 	c #F4EDE2",
"T 	c #F5EDE2",
"U 	c #F6EEE4",
"V 	c #F6EFE4",
"W 	c #F1EADF",
"X 	c #F3EBE2",
"Y 	c #F4EEE2",
"Z 	c #F5EEE3",
"` 	c #F6EEE3",
" .	c #F5EDE3",
". + @ # $ % & * * = - ; > , , ' ) ! ~ { ",
"] ^ / ( ; ; _ : ' ) ) ~ ~ < [ } | 1 2 2 ",
": ' ) 3 ~ 4 < [ } 5 1 6 6 6 7 8 9 0 0 8 ",
"a | b | 1 c 6 8 8 0 0 d 8 8 7 e 1 2 | | ",
"8 f g 0 0 8 7 6 c 2 1 b } < h ~ ~ 3 ) i ",
"j 2 1 k } [ a < { l ) ) : _ : > m - - * ",
"a ~ l 3 ) ' : , > ; - - n ] o & # # p @ ",
"q > ( ( - ^ ] r % # s p t . u v w x y z ",
"o % % # p t . u A B C y D E F G H I J K ",
"A A w L y M E N F O P Q K R S T U V V V ",
"W W H P X R R S Y Z ` V V V V V V V V V ",
"S  .Z ` V V V V V V V V V V V V V V V V ",
"V V V V V V V V V V V V V V V V V V V V ",
"V V V V V V V V V V V V V V V V V V V V ",
"V V V V V V V V V V V V V V V V V V V V ",
"V V V V V V V V V V V V V V V V V V V V ",
"V V V V V V V V V V V V V V V V V V V V ",
"V V V V V V V V V V V V V V V V V V V V ",
"V V V V V V V V V V V V V V V V V V V V ",
"V V V V V V V V V V V V V V V V V V V V "};
