/* XPM */
static char * highlight_xpm[] = {
"20 20 49 1",
" 	c None",
".	c #FAA56A",
"+	c #FAA368",
"@	c #FAA165",
"#	c #FA9E61",
"$	c #FA9E62",
"%	c #F99E62",
"&	c #FB9B5E",
"*	c #FA9B5E",
"=	c #FA9B5F",
"-	c #FB985B",
";	c #FA985B",
">	c #FB985C",
",	c #FB9557",
"'	c #FB9558",
")	c #FB9658",
"!	c #FB9254",
"~	c #FB9255",
"{	c #FB9355",
"]	c #FB9051",
"^	c #FB9052",
"/	c #FB8D4E",
"(	c #FB8A4A",
"_	c #FB8A4B",
":	c #FB8B4B",
"<	c #FB8747",
"[	c #FA8747",
"}	c #FB8847",
"|	c #FC8443",
"1	c #FC8444",
"2	c #FC8544",
"3	c #FB8544",
"4	c #FC8240",
"5	c #FC8140",
"6	c #FC8241",
"7	c #FC8141",
"8	c #FB8241",
"9	c #FC7F3D",
"0	c #FC7F3E",
"a	c #FC803E",
"b	c #FC7C39",
"c	c #FC7C3A",
"d	c #FC7936",
"e	c #FC7937",
"f	c #FC7A37",
"g	c #FC7633",
"h	c #FC7634",
"i	c #FC7734",
"j	c #FC7430",
"....................",
"....................",
"++++++++++++++++++++",
"@@@@@@@@@@@@@@@@@@@@",
"#######$%%%%$$%%%$$%",
"&&&&&*&***==========",
"------;--->>>>>>>>>>",
",,,'''''''''''')''))",
"!!!!!!!!!~~~~~~~~{~{",
"]]]]]^]]]]]]]]]]]]]]",
"////////////////////",
"((((((_:___:::::::::",
"<<<<<<<<<<<<<<[[<}<}",
"||||1112222223333232",
"45546766666686666866",
"9999999900000000000a",
"bbcccccccccccccccccc",
"ddddddeeeefeefffffff",
"gggggghhhhhhhhhiiiii",
"jjjjjjjjjjjjjjjjjjjj"};
