/* XPM */
static char * maxfcs_xpm[] = {
"15 15 180 2",
"  	c None",
". 	c #DEDBD9",
"+ 	c #DEDAD8",
"@ 	c #DDDAD8",
"# 	c #DDDBD9",
"$ 	c #DED8D6",
"% 	c #DCD4CE",
"& 	c #DBCEC7",
"* 	c #DACBC4",
"= 	c #DBCDC7",
"- 	c #DCD2CD",
"; 	c #DDD8D6",
"> 	c #DECDC5",
", 	c #D7AB99",
"' 	c #CC876C",
") 	c #C5704D",
"! 	c #C66B47",
"~ 	c #C56E4B",
"{ 	c #CB8366",
"] 	c #D4A38F",
"^ 	c #DBC8BF",
"/ 	c #DFC4B9",
"( 	c #CC886C",
"_ 	c #BD6947",
": 	c #CD724E",
"< 	c #D46F46",
"[ 	c #DA784F",
"} 	c #D67148",
"| 	c #D1724C",
"1 	c #C06844",
"2 	c #C57859",
"3 	c #D7BAAD",
"4 	c #DECDC4",
"5 	c #CC876B",
"6 	c #C06E4D",
"7 	c #DE774F",
"8 	c #EC7D50",
"9 	c #ED7C4F",
"0 	c #EE7C4F",
"a 	c #EE7C4E",
"b 	c #ED7C4E",
"c 	c #E37A50",
"d 	c #C66D4A",
"e 	c #BF7456",
"f 	c #D8C6BF",
"g 	c #D6A996",
"h 	c #BF6B4A",
"i 	c #DF7A50",
"j 	c #F17C4D",
"k 	c #F37F50",
"l 	c #F28153",
"m 	c #F38153",
"n 	c #F38051",
"o 	c #F47F4E",
"p 	c #F57B4B",
"q 	c #E87D52",
"r 	c #C26845",
"s 	c #C99C8A",
"t 	c #DCD8D5",
"u 	c #DCD3CE",
"v 	c #D0714B",
"w 	c #BE7051",
"x 	c #9C6C59",
"y 	c #9A6D5B",
"z 	c #9B6D5C",
"A 	c #9C6E5A",
"B 	c #976B58",
"C 	c #AA694F",
"D 	c #EA794C",
"E 	c #DA7046",
"F 	c #BE7759",
"G 	c #D9D0CC",
"H 	c #DBCBC5",
"I 	c #C66B46",
"J 	c #D9764D",
"K 	c #764A39",
"L 	c #4B362D",
"M 	c #634235",
"N 	c #624236",
"O 	c #654235",
"P 	c #52392F",
"Q 	c #55392E",
"R 	c #E27548",
"S 	c #ED8055",
"T 	c #C06945",
"U 	c #D7C9C3",
"V 	c #DAC7BF",
"W 	c #C5633B",
"X 	c #E07E55",
"Y 	c #F48052",
"Z 	c #654234",
"` 	c #AA6449",
" .	c #F38D65",
"..	c #EE8E67",
"+.	c #F48C63",
"@.	c #D07652",
"#.	c #5B3D31",
"$.	c #DF7347",
"%.	c #F18559",
"&.	c #C36640",
"*.	c #D5C7C0",
"=.	c #DAC9C2",
"-.	c #C1653F",
";.	c #DD7850",
">.	c #6E4433",
",.	c #79584C",
"'.	c #AB7763",
").	c #A87763",
"!.	c #AC7661",
"~.	c #906756",
"{.	c #5E4238",
"].	c #DF7246",
"^.	c #F08458",
"/.	c #C36F4D",
"(.	c #DAD0CB",
"_.	c #C07658",
":.	c #D4714A",
"<.	c #F07E51",
"[.	c #AF6243",
"}.	c #754835",
"|.	c #724636",
"1.	c #734736",
"2.	c #734635",
"3.	c #6F4432",
"4.	c #94543A",
"5.	c #E9784A",
"6.	c #E57D52",
"7.	c #C38369",
"8.	c #DAD1CD",
"9.	c #C99C8B",
"0.	c #BF6743",
"a.	c #E57D53",
"b.	c #F27D4E",
"c.	c #F88455",
"d.	c #F88658",
"e.	c #F78659",
"f.	c #F88557",
"g.	c #F98354",
"h.	c #F67F4D",
"i.	c #EE8257",
"j.	c #D07B58",
"k.	c #C9A394",
"l.	c #DCD8D6",
"m.	c #D6C8C1",
"n.	c #BA765A",
"o.	c #CA704C",
"p.	c #E87F55",
"q.	c #EC7C4F",
"r.	c #EB7B4D",
"s.	c #EC7A4C",
"t.	c #EB7A4C",
"u.	c #EC7A4D",
"v.	c #EC8359",
"w.	c #D7815E",
"x.	c #BE8268",
"y.	c #D5CAC4",
"z.	c #D1BCB3",
"A.	c #BB795D",
"B.	c #C76C48",
"C.	c #DC7951",
"D.	c #E78057",
"E.	c #EB875D",
"F.	c #E98259",
"G.	c #DF7B54",
"H.	c #CE7B59",
"I.	c #BE836A",
"J.	c #D1BFB8",
"K.	c #DEDBDA",
"L.	c #D6CAC4",
"M.	c #C8A191",
"N.	c #C28469",
"O.	c #BF7153",
"P.	c #BF6D4C",
"Q.	c #C07455",
"R.	c #C4886F",
"S.	c #C8A596",
"T.	c #D6CBC6",
"U.	c #DAD2CF",
"V.	c #D7CBC6",
"W.	c #D5C8C2",
". + @ # $ % & * = - ; . @ @ . ",
"+ @ . > , ' ) ! ~ { ] ^ . @ @ ",
"@ . / ( _ : < [ } | 1 2 3 . @ ",
"@ 4 5 6 7 8 9 0 a b c d e f . ",
"$ g h i j k l m n o p q r s t ",
"u { v b w x y z A B C D E F G ",
"H I J n K L M N O P Q R S T U ",
"V W X Y Z `  ...+.@.#.$.%.&.*.",
"=.-.;.n >.,.'.).!.~.{.].^./.U ",
"(._.:.<.[.}.|.1.2.3.4.5.6.7.8.",
"t 9.0.a.b.c.d.e.f.g.h.i.j.k.l.",
". m.n.o.p.q.r.s.t.u.v.w.x.y.. ",
"@ . z.A.B.C.D.E.F.G.H.I.J.K.@ ",
"@ @ . L.M.N.O.P.Q.R.S.T.K.@ @ ",
". @ @ . l.U.V.W.V.U.l.. @ @ . "};
