/* XPM */
static char * maxpr_xpm[] = {
"15 15 174 2",
"  	c None",
". 	c #DEDBD9",
"+ 	c #DEDAD8",
"@ 	c #DDDAD8",
"# 	c #DDDBD9",
"$ 	c #DED8D6",
"% 	c #DCD4CE",
"& 	c #DBCEC7",
"* 	c #DACBC4",
"= 	c #DBCDC7",
"- 	c #DCD2CD",
"; 	c #DDD8D6",
"> 	c #DECDC5",
", 	c #D7AB99",
"' 	c #CC876C",
") 	c #C66F4B",
"! 	c #C76A45",
"~ 	c #C66D49",
"{ 	c #CB8365",
"] 	c #D4A38F",
"^ 	c #DBC8BF",
"/ 	c #DFC4B9",
"( 	c #CC886C",
"_ 	c #BE6744",
": 	c #CC714E",
"< 	c #CB8265",
"[ 	c #D28B6E",
"} 	c #CD8367",
"| 	c #D07652",
"1 	c #C16540",
"2 	c #C57859",
"3 	c #D7BAAE",
"4 	c #DECDC4",
"5 	c #CC876B",
"6 	c #C26A46",
"7 	c #D69177",
"8 	c #E19D83",
"9 	c #E1A58F",
"0 	c #E0A48D",
"a 	c #E1A58E",
"b 	c #E29F85",
"c 	c #D9957A",
"d 	c #C96E49",
"e 	c #BE7456",
"f 	c #D8C6BF",
"g 	c #D6A996",
"h 	c #C06946",
"i 	c #D79378",
"j 	c #E2A58E",
"k 	c #E2A48D",
"l 	c #DD977C",
"m 	c #C36540",
"n 	c #C99C8A",
"o 	c #DCD8D5",
"p 	c #DCD3CE",
"q 	c #CB8366",
"r 	c #CE7755",
"s 	c #E5A48C",
"t 	c #BE7253",
"u 	c #9C6B57",
"v 	c #9B6C58",
"w 	c #9C6C59",
"x 	c #9C6C58",
"y 	c #986956",
"z 	c #AB6A50",
"A 	c #E4A790",
"B 	c #D18162",
"C 	c #BF7658",
"D 	c #D9D0CC",
"E 	c #DBCBC5",
"F 	c #C66A44",
"G 	c #CF886C",
"H 	c #E9AB94",
"I 	c #764C3D",
"J 	c #4B362E",
"K 	c #644B42",
"L 	c #634A41",
"M 	c #523A30",
"N 	c #55392E",
"O 	c #DD7D57",
"P 	c #E39C82",
"Q 	c #C16B47",
"R 	c #D7C9C3",
"S 	c #DAC7BF",
"T 	c #C66239",
"U 	c #D79175",
"V 	c #654538",
"W 	c #AB664C",
"X 	c #F4B39A",
"Y 	c #EEAD94",
"Z 	c #F1B199",
"` 	c #CF7856",
" .	c #5B3D30",
"..	c #D97F5B",
"+.	c #E79C7E",
"@.	c #C4653D",
"#.	c #D5C7C0",
"$.	c #DAC9C2",
"%.	c #C1643D",
"&.	c #D38C6F",
"*.	c #E9AC95",
"=.	c #6E4737",
"-.	c #79594D",
";.	c #AB806F",
">.	c #A87E6D",
",.	c #AA7E6E",
"'.	c #906857",
").	c #5E4237",
"!.	c #D97A55",
"~.	c #E69B7E",
"{.	c #C46E4B",
"].	c #DAD0CB",
"^.	c #C07658",
"/.	c #D17551",
"(.	c #E7A48B",
"_.	c #AF6345",
":.	c #764633",
"<.	c #734533",
"[.	c #744634",
"}.	c #744433",
"|.	c #704330",
"1.	c #95563C",
"2.	c #E5A790",
"3.	c #DB8E6F",
"4.	c #C38267",
"5.	c #DAD1CD",
"6.	c #C99C8B",
"7.	c #C0643F",
"8.	c #DC967B",
"9.	c #E4A68F",
"0.	c #E4A58D",
"a.	c #E5A48B",
"b.	c #E2A68F",
"c.	c #E39D81",
"d.	c #D17853",
"e.	c #C9A394",
"f.	c #DCD8D6",
"g.	c #D6C8C1",
"h.	c #BA765A",
"i.	c #CB6C45",
"j.	c #DF9D83",
"k.	c #E39E83",
"l.	c #DFA48E",
"m.	c #DFA38D",
"n.	c #DFA48D",
"o.	c #E2A086",
"p.	c #E39D82",
"q.	c #D97C57",
"r.	c #BE8268",
"s.	c #D5CAC4",
"t.	c #D1BCB3",
"u.	c #BB785C",
"v.	c #C87250",
"w.	c #DB7B54",
"x.	c #E0987C",
"y.	c #E49B7E",
"z.	c #E1977A",
"A.	c #DC825F",
"B.	c #CF7855",
"C.	c #BE836A",
"D.	c #D1BFB8",
"E.	c #DEDBDA",
"F.	c #D6CAC4",
"G.	c #C8A191",
"H.	c #C28369",
"I.	c #C07253",
"J.	c #BF6C4A",
"K.	c #C17353",
"L.	c #C4886E",
"M.	c #C8A596",
"N.	c #D6CBC6",
"O.	c #DAD2CF",
"P.	c #D7CBC6",
"Q.	c #D5C8C2",
". + @ # $ % & * = - ; . @ @ . ",
"+ @ . > , ' ) ! ~ { ] ^ . @ @ ",
"@ . / ( _ : < [ } | 1 2 3 . @ ",
"@ 4 5 6 7 8 9 0 a b c d e f . ",
"$ g h i a j k k k j a l m n o ",
"p q r s t u v w x y z A B C D ",
"E F G H I J K L K M N O P Q R ",
"S T U H V W X Y Z `  ...+.@.#.",
"$.%.&.*.=.-.;.>.,.'.).!.~.{.R ",
"].^./.(._.:.<.[.}.|.1.2.3.4.5.",
"o 6.7.8.a 9.0.a.9.9.b.c.d.e.f.",
". g.h.i.j.k.l.m.n.o.p.q.r.s.. ",
"@ . t.u.v.w.x.y.z.A.B.C.D.E.@ ",
"@ @ . F.G.H.I.J.K.L.M.N.E.@ @ ",
". @ @ . f.O.P.Q.P.O.f.. @ @ . "};
