/* XPM */
static char * maxufcs_xpm[] = {
"18 18 34 1",
" 	c None",
".	c #DFD7CF",
"+	c #BDBAB8",
"@	c #646262",
"#	c #696867",
"$	c #666565",
"%	c #5E5D5C",
"&	c #979594",
"*	c #A8A6A5",
"=	c #252525",
"-	c #6C6B6A",
";	c #858383",
">	c #848281",
",	c #171717",
"'	c #757473",
")	c #2B2B2B",
"!	c #181818",
"~	c #777574",
"{	c #2B2A2A",
"]	c #ABA8A7",
"^	c #292929",
"/	c #A29F9E",
"(	c #767474",
"_	c #A6A4A3",
":	c #2D2D2D",
"<	c #565554",
"[	c #696766",
"}	c #686665",
"|	c #2F2F2F",
"1	c #7B7979",
"2	c #CDC9C7",
"3	c #999796",
"4	c #959392",
"5	c #B5B3B1",
"..................",
"..................",
"..................",
"..................",
"..................",
"..................",
"..+@#$$$$$$$$$%&..",
"..*=-;>>>>>>>>,'..",
"..*)*.........!~..",
"..*{].........!~..",
"..*^/.........,(..",
".._:<[}}}}}}}}|1..",
"..23444444444445..",
"..................",
"..................",
"..................",
"..................",
".................."};
