/* XPM */
static char * menuiconpr_xpm[] = {
"20 20 4 1",
" 	c None",
".	c #E5DED7",
"+	c #DFD7CF",
"@	c #000000",
"....................",
"++++++++++++++++++++",
"++++++++++++++++++++",
"++++++++++++++++++++",
"++++++++++++++++++++",
"++++++++++++++++++++",
"++++++++++++++++++++",
"++++++@@@@@@@@@+++++",
"++++++++++++++++++++",
"++++++@@@@@@@@@+++++",
"++++++++++++++++++++",
"++++++@@@@@@@@@+++++",
"++++++++++++++++++++",
"++++++@@@@@@@@@+++++",
"++++++++++++++++++++",
"++++++++++++++++++++",
"++++++++++++++++++++",
"++++++++++++++++++++",
"++++++++++++++++++++",
"++++++++++++++++++++"};
