/* XPM */
static char * minfcs_xpm[] = {
"15 15 173 2",
"  	c None",
". 	c #DEDBD9",
"+ 	c #DEDAD8",
"@ 	c #DDDAD8",
"# 	c #DDDBD9",
"$ 	c #DED8D6",
"% 	c #DCD4CE",
"& 	c #DBCEC7",
"* 	c #DACBC4",
"= 	c #DBCDC7",
"- 	c #DCD2CD",
"; 	c #DDD8D6",
"> 	c #DECDC5",
", 	c #D7AB99",
"' 	c #CC876C",
") 	c #C5704D",
"! 	c #C66B47",
"~ 	c #C56E4B",
"{ 	c #CB8366",
"] 	c #D4A38F",
"^ 	c #DBC8BF",
"/ 	c #DFC4B9",
"( 	c #CC886C",
"_ 	c #BD6947",
": 	c #CD724E",
"< 	c #D46F46",
"[ 	c #DA784F",
"} 	c #D67148",
"| 	c #D1724C",
"1 	c #C06844",
"2 	c #C57859",
"3 	c #D7BAAD",
"4 	c #DECDC4",
"5 	c #CC876B",
"6 	c #C06E4D",
"7 	c #DE784F",
"8 	c #ED7D50",
"9 	c #EE7C4F",
"0 	c #EF7C4E",
"a 	c #EE7C4E",
"b 	c #E37B50",
"c 	c #C66D4A",
"d 	c #BF7456",
"e 	c #D8C6BF",
"f 	c #D6A996",
"g 	c #BF6C4A",
"h 	c #DF7950",
"i 	c #EC7A4D",
"j 	c #EA7C50",
"k 	c #E97E53",
"l 	c #E97E54",
"m 	c #EA7D52",
"n 	c #EB7C4F",
"o 	c #ED794B",
"p 	c #E77D52",
"q 	c #C36845",
"r 	c #C99C8A",
"s 	c #DCD8D5",
"t 	c #DCD3CE",
"u 	c #D0714B",
"v 	c #ED7D4F",
"w 	c #E97F56",
"x 	c #E88259",
"y 	c #E8835A",
"z 	c #E88258",
"A 	c #EA7F54",
"B 	c #EB7B4F",
"C 	c #EE7B4D",
"D 	c #D96F45",
"E 	c #BE7759",
"F 	c #D9D0CC",
"G 	c #DBCBC5",
"H 	c #C66B46",
"I 	c #D8754D",
"J 	c #EE7D4F",
"K 	c #E87E54",
"L 	c #DE7E58",
"M 	c #D9805C",
"N 	c #DA815F",
"O 	c #DA805B",
"P 	c #DD7C56",
"Q 	c #E77D51",
"R 	c #EE7A4B",
"S 	c #C06945",
"T 	c #D7C9C3",
"U 	c #DAC7BF",
"V 	c #C5633B",
"W 	c #DF7E55",
"X 	c #F07E4F",
"Y 	c #DB7A53",
"Z 	c #775345",
"` 	c #624B43",
" .	c #644D44",
"..	c #724F41",
"+.	c #D0724C",
"@.	c #F17C4C",
"#.	c #EC8359",
"$.	c #C36640",
"%.	c #D5C7C0",
"&.	c #DAC9C2",
"*.	c #C1653F",
"=.	c #DC7850",
"-.	c #E47D54",
";.	c #BE6F50",
">.	c #B56D51",
",.	c #B66E53",
"'.	c #B66C50",
").	c #BD6D4D",
"!.	c #E2794F",
"~.	c #EE7A4C",
"{.	c #EC8257",
"].	c #C36F4D",
"^.	c #DAD0CB",
"/.	c #C07658",
"(.	c #D3714A",
"_.	c #EE7D50",
":.	c #EA7D51",
"<.	c #EA8056",
"[.	c #E9825A",
"}.	c #E9835B",
"|.	c #E98259",
"1.	c #EB7F55",
"2.	c #E37C52",
"3.	c #C38369",
"4.	c #DAD1CD",
"5.	c #C99C8B",
"6.	c #BF6743",
"7.	c #E67D53",
"8.	c #EB7A4D",
"9.	c #E97F54",
"0.	c #E97D52",
"a.	c #EA7C4F",
"b.	c #EC794A",
"c.	c #ED8256",
"d.	c #D07B58",
"e.	c #C9A394",
"f.	c #DCD8D6",
"g.	c #D6C8C1",
"h.	c #BA765A",
"i.	c #CA704C",
"j.	c #E97F55",
"k.	c #ED7C4F",
"l.	c #EC7B4E",
"m.	c #ED7A4C",
"n.	c #EC7A4C",
"o.	c #ED7B4E",
"p.	c #ED8359",
"q.	c #D7815E",
"r.	c #BE8268",
"s.	c #D5CAC4",
"t.	c #D1BCB3",
"u.	c #BB795D",
"v.	c #C76C48",
"w.	c #DC7951",
"x.	c #E78057",
"y.	c #EB875D",
"z.	c #DF7B54",
"A.	c #CE7B59",
"B.	c #BE836A",
"C.	c #D1BFB8",
"D.	c #DEDBDA",
"E.	c #D6CAC4",
"F.	c #C8A191",
"G.	c #C28469",
"H.	c #BF7153",
"I.	c #BF6D4C",
"J.	c #C07455",
"K.	c #C4886F",
"L.	c #C8A596",
"M.	c #D6CBC6",
"N.	c #DAD2CF",
"O.	c #D7CBC6",
"P.	c #D5C8C2",
". + @ # $ % & * = - ; . @ @ . ",
"+ @ . > , ' ) ! ~ { ] ^ . @ @ ",
"@ . / ( _ : < [ } | 1 2 3 . @ ",
"@ 4 5 6 7 8 9 9 0 a b c d e . ",
"$ f g h i j k l m n o p q r s ",
"t { u v j w x y z A B C D E F ",
"G H I J K L M N O P Q R l S T ",
"U V W X Y Z `  .` ..+.@.#.$.%.",
"&.*.=.J -.;.>.,.'.).!.~.{.].T ",
"^./.(._.:.<.[.}.|.1.n R 2.3.4.",
"s 5.6.7.8.:.9.9.0.a.b.c.d.e.f.",
". g.h.i.j.k.l.m.n.o.p.q.r.s.. ",
"@ . t.u.v.w.x.y.|.z.A.B.C.D.@ ",
"@ @ . E.F.G.H.I.J.K.L.M.D.@ @ ",
". @ @ . f.N.O.P.O.N.f.. @ @ . "};
