/* XPM */
static char * minpr_xpm[] = {
"15 15 140 2",
"  	c None",
". 	c #DEDBD9",
"+ 	c #DEDAD8",
"@ 	c #DDDAD8",
"# 	c #DDDBD9",
"$ 	c #DED8D6",
"% 	c #DCD4CE",
"& 	c #DBCEC7",
"* 	c #DACBC4",
"= 	c #DBCDC7",
"- 	c #DCD2CD",
"; 	c #DDD8D6",
"> 	c #DECDC5",
", 	c #D7AB99",
"' 	c #CC866B",
") 	c #C66F4C",
"! 	c #C76A45",
"~ 	c #C66D49",
"{ 	c #CB8264",
"] 	c #D4A38F",
"^ 	c #DBC8BF",
"/ 	c #DFC4B9",
"( 	c #CC886C",
"_ 	c #BE6643",
": 	c #CC8165",
"< 	c #CB8163",
"[ 	c #D28B6E",
"} 	c #CD8365",
"| 	c #CD8164",
"1 	c #C1653F",
"2 	c #C47757",
"3 	c #D7BAAE",
"4 	c #DECDC4",
"5 	c #CC876B",
"6 	c #C26A46",
"7 	c #D69177",
"8 	c #E1A58F",
"9 	c #E1A58E",
"0 	c #E0A48D",
"a 	c #E1A48E",
"b 	c #D9967C",
"c 	c #CC7D5E",
"d 	c #BE7254",
"e 	c #D8C6BF",
"f 	c #D6A996",
"g 	c #C06945",
"h 	c #D79378",
"i 	c #E0A38C",
"j 	c #DFA28B",
"k 	c #DE9D84",
"l 	c #C99C89",
"m 	c #DCD8D5",
"n 	c #DCD3CE",
"o 	c #CB8265",
"p 	c #CC8163",
"q 	c #DFA38C",
"r 	c #E0A58E",
"s 	c #D18163",
"t 	c #BF7658",
"u 	c #D9D0CC",
"v 	c #DBCBC5",
"w 	c #C66A44",
"x 	c #CF886B",
"y 	c #E0A48E",
"z 	c #D5967D",
"A 	c #D3967F",
"B 	c #D5957C",
"C 	c #E3A993",
"D 	c #C27353",
"E 	c #D7C9C3",
"F 	c #DAC7BF",
"G 	c #C66239",
"H 	c #D79175",
"I 	c #DC8F70",
"J 	c #784D3D",
"K 	c #62473D",
"L 	c #64493E",
"M 	c #63473D",
"N 	c #734939",
"O 	c #D48566",
"P 	c #E2A38B",
"Q 	c #D5C7C0",
"R 	c #DAC9C2",
"S 	c #C1643D",
"T 	c #D38B6E",
"U 	c #DD987D",
"V 	c #BA8876",
"W 	c #B38574",
"X 	c #B48674",
"Y 	c #B98775",
"Z 	c #D9947A",
"` 	c #E3A68F",
" .	c #C37556",
"..	c #DAD0CB",
"+.	c #C17557",
"@.	c #CE8062",
"#.	c #DB9072",
"$.	c #C38368",
"%.	c #DAD0CD",
"&.	c #C99C8B",
"*.	c #C0643E",
"=.	c #DC987E",
"-.	c #E0A28B",
";.	c #E39D81",
">.	c #D17853",
",.	c #C9A394",
"'.	c #DCD8D6",
").	c #D6C8C1",
"!.	c #BA7458",
"~.	c #CD8062",
"{.	c #E0A38D",
"].	c #DFA38D",
"^.	c #E39D82",
"/.	c #D97C57",
"(.	c #BE8268",
"_.	c #D5CAC4",
":.	c #D1BDB3",
"<.	c #BB7659",
"[.	c #C97B5D",
"}.	c #D68869",
"|.	c #E3A289",
"1.	c #E4997B",
"2.	c #E3A48D",
"3.	c #D88C6E",
"4.	c #CF7854",
"5.	c #BE836A",
"6.	c #D1BFB8",
"7.	c #DEDBDA",
"8.	c #D6CAC4",
"9.	c #C7A090",
"0.	c #C28369",
"a.	c #C1775A",
"b.	c #BF6B49",
"c.	c #C27A5D",
"d.	c #C4886E",
"e.	c #C8A596",
"f.	c #D6CBC6",
"g.	c #DAD2CF",
"h.	c #D7CBC6",
"i.	c #D5C9C2",
". + @ # $ % & * = - ; . @ @ . ",
"+ @ . > , ' ) ! ~ { ] ^ . @ @ ",
"@ . / ( _ : < [ } | 1 2 3 . @ ",
"@ 4 5 6 7 8 9 0 a 8 b c d e . ",
"$ f g h i j i i i j i k ) l m ",
"n o p 8 j i i i i i q r s t u ",
"v w x 0 y z A A A B i j C D E ",
"F G H 8 I J K L M N O 8 P 6 Q ",
"R S T 8 U V W X W Y Z 0 `  .E ",
"..+.@.8 i i i i i i i 0 #.$.%.",
"m &.*.=.i i i i i -.i ;.>.,.'.",
". ).!.~.{.0 q ].q y ^./.(._.. ",
"@ . :.<.[.}.|.1.2.3.4.5.6.7.@ ",
"@ @ . 8.9.0.a.b.c.d.e.f.7.@ @ ",
". @ @ . '.g.h.i.h.g.'.. @ @ . "};
