/* XPM */
static char * minufcs_xpm[] = {
"18 18 15 1",
" 	c None",
".	c #DFD7CF",
"+	c #939290",
"@	c #959392",
"#	c #BDBAB9",
"$	c #141414",
"%	c #111111",
"&	c #A9A7A5",
"*	c #151515",
"=	c #131313",
"-	c #AAA7A6",
";	c #A09E9C",
">	c #ABA9A7",
",	c #AAA8A6",
"'	c #C3C0BF",
"..................",
"..................",
"..................",
"..................",
"..................",
"..................",
"..................",
"....+@@@@@@@@@#...",
"....$%%%%%%%%%&...",
"....*=========-...",
"....;>,,,,,,,,'...",
"..................",
"..................",
"..................",
"..................",
"..................",
"..................",
".................."};
