/* XPM */
static char * shadeufcs_xpm[] = {
"20 20 3 1",
" 	c None",
".	c #DFD7CF",
"+	c #000000",
"....................",
"....................",
"....................",
"....................",
"....................",
"....................",
"....................",
"....................",
"....................",
"....................",
".........++.........",
"........++++........",
".......++++++.......",
"....................",
"....................",
"....................",
"....................",
"....................",
"....................",
"...................."};
