/* XPM */
static char * stickufcs_xpm[] = {
"15 15 5 1",
" 	c None",
".	c #DFD7CF",
"+	c #656565",
"@	c #646464",
"#	c #636363",
"...............",
"...............",
"...............",
"...............",
"......+@.......",
"......@#.......",
"....+@@@@@.....",
"....######.....",
"......@#.......",
"......##.......",
"...............",
"...............",
"...............",
"...............",
"..............."};
