/* XPM */
static char * stickfcs_xpm[] = {
"15 15 4 1",
" 	c None",
".	c #DFD7CF",
"+	c #252525",
"@	c #242424",
"...............",
"...............",
"...............",
"...............",
"......++.......",
"......+@.......",
"....++++++.....",
"....@@@@@@.....",
"......+@.......",
"......@@.......",
"...............",
"...............",
"...............",
"...............",
"..............."};
