/* XPM */
static char * stuckufcs_xpm[] = {
"15 15 63 1",
" 	c None",
".	c #DFD7CF",
"+	c #D9D2CA",
"@	c #D5CDC6",
"#	c #DAD2CA",
"$	c #DCD4CC",
"%	c #DBD3CB",
"&	c #DED6CE",
"*	c #D0C9C1",
"=	c #B2ADA7",
"-	c #ACA7A2",
";	c #C1BBB4",
">	c #C6BFB8",
",	c #CEC7C0",
"'	c #D0C9C2",
")	c #ABA5A0",
"!	c #797775",
"~	c #696866",
"{	c #7B7876",
"]	c #8E8A87",
"^	c #B8B2AC",
"/	c #A4A09B",
"(	c #6F6D6C",
"_	c #545454",
":	c #4F4F4F",
"<	c #505050",
"[	c #61605F",
"}	c #A09C97",
"|	c #CAC3BC",
"1	c #BFB9B2",
"2	c #7D7B78",
"3	c #525252",
"4	c #868380",
"5	c #BCB6B0",
"6	c #D2CBC3",
"7	c #DDD5CD",
"8	c #767472",
"9	c #BBB5AF",
"0	c #D9D1C9",
"a	c #B6B0AA",
"b	c #555454",
"c	c #585757",
"d	c #807D7A",
"e	c #D5CEC6",
"f	c #A5A19C",
"g	c #787674",
"h	c #565656",
"i	c #605F5E",
"j	c #83807D",
"k	c #9E9995",
"l	c #BFB9B3",
"m	c #D4CCC5",
"n	c #AAA5A0",
"o	c #8A8783",
"p	c #AEA9A3",
"q	c #B9B3AD",
"r	c #C3BCB6",
"s	c #ADA8A2",
"t	c #B5AFA9",
"u	c #C0BAB3",
"v	c #D3CCC4",
"w	c #CEC7BF",
"x	c #D7D0C8",
"...............",
"...............",
".....+@#.$%&...",
".....*=-;>,&...",
"..&%')!~{]^#%..",
"..$,/(_:<[}|'..",
"..$123:::_456..",
"..758::::<897..",
"..0a!b:::cd1...",
"..e;fgh3ijkl&..",
"..#+mn2gopq;%..",
"....+rstu|*6$..",
"....7vwx&&.....",
"...............",
"..............."};
