/* XPM */
static char * stuckfcs_xpm[] = {
"15 15 65 1",
" 	c None",
".	c #DFD7CF",
"+	c #D8D1C9",
"@	c #D3CBC4",
"#	c #D9D1C9",
"$	c #DBD3CB",
"%	c #DAD2CA",
"&	c #DED6CE",
"*	c #CDC5BE",
"=	c #A9A39E",
"-	c #A19C97",
";	c #BBB4AE",
">	c #C0BAB3",
",	c #CAC3BC",
"'	c #DAD3CB",
")	c #CDC6BF",
"!	c #9F9A95",
"~	c #63615E",
"{	c #4F4D4C",
"]	c #64625F",
"^	c #7C7875",
"/	c #B0AAA4",
"(	c #97938E",
"_	c #575553",
":	c #353535",
"<	c #2F2F2F",
"[	c #313030",
"}	c #454443",
"|	c #938E89",
"1	c #C5BEB7",
"2	c #B8B2AB",
"3	c #686563",
"4	c #333232",
"5	c #73706D",
"6	c #B4AEA8",
"7	c #CFC8C1",
"8	c #DCD5CD",
"9	c #5F5D5A",
"0	c #303030",
"a	c #D8D0C8",
"b	c #ADA7A1",
"c	c #363635",
"d	c #3A3939",
"e	c #6B6865",
"f	c #D3CCC4",
"g	c #99948F",
"h	c #625F5D",
"i	c #383837",
"j	c #333333",
"k	c #444342",
"l	c #6F6C69",
"m	c #8F8B86",
"n	c #B9B2AC",
"o	c #D1CAC3",
"p	c #9E9994",
"q	c #777470",
"r	c #A39E99",
"s	c #B1ABA5",
"t	c #BDB6B0",
"u	c #A29D97",
"v	c #ACA6A1",
"w	c #B9B3AD",
"x	c #DCD4CC",
"y	c #D1C9C2",
"z	c #D6CEC6",
"...............",
"...............",
".....+@#.$%&...",
".....*=-;>,&...",
"..&')!~{]^/#'..",
"..$,(_:<[}|1)..",
"..$234<<<:567..",
"..869<<<<0968..",
"..ab~c<<<de2...",
"..f;ghijklmn&..",
"..#+op3hqrs;'..",
"....+tuvw1*7x..",
"....8y,z&&.....",
"...............",
"..............."};
