/* XPM */
static char * tbarfcs_xpm[] = {
"20 20 16 1",
" 	c None",
".	c #DEDAD8",
"+	c #DFDBD7",
"@	c #DFDAD7",
"#	c #DEDBD8",
"$	c #DEDAD7",
"%	c #DFDAD8",
"&	c #DED9D5",
"*	c #DFDAD5",
"=	c #DEDAD4",
"-	c #DFDAD4",
";	c #DFD9D5",
">	c #DED9D4",
",	c #DFD9D4",
"'	c #DEDAD5",
")	c #DFD7CF",
".+.+@##.@$..$%%.#.$.",
"&*=-&;=;&;>=,&'',*&-",
"))))))))))))))))))))",
"))))))))))))))))))))",
"))))))))))))))))))))",
"))))))))))))))))))))",
"))))))))))))))))))))",
"))))))))))))))))))))",
"))))))))))))))))))))",
"))))))))))))))))))))",
"))))))))))))))))))))",
"))))))))))))))))))))",
"))))))))))))))))))))",
"))))))))))))))))))))",
"))))))))))))))))))))",
"))))))))))))))))))))",
"))))))))))))))))))))",
"))))))))))))))))))))",
"))))))))))))))))))))",
"))))))))))))))))))))"};
