/* XPM */
static char * tbarufcs_xpm[] = {
"20 20 54 1",
" 	c None",
".	c #D5D0CC",
"+	c #D4D0CC",
"@	c #D4D0CD",
"#	c #D5D0CD",
"$	c #D5D1CC",
"%	c #D5D1CD",
"&	c #D6D1CD",
"*	c #D6D1CC",
"=	c #D6D0CD",
"-	c #D6D2CD",
";	c #D7D1CC",
">	c #D7D1CD",
",	c #D7D2CD",
"'	c #D6D2CC",
")	c #D8D2CD",
"!	c #D7D2CE",
"~	c #D8D3CE",
"{	c #D9D3CD",
"]	c #D8D2CE",
"^	c #D8D3CD",
"/	c #D9D2CE",
"(	c #D9D2CD",
"_	c #D9D3CE",
":	c #D9D4CD",
"<	c #DAD3CE",
"[	c #DAD4CE",
"}	c #DAD3CD",
"|	c #D9D4CE",
"1	c #DAD4CD",
"2	c #DBD3CE",
"3	c #DBD4CE",
"4	c #DBD4CD",
"5	c #DAD5CE",
"6	c #DBD5CE",
"7	c #DBD5CF",
"8	c #DCD4CE",
"9	c #DCD5CE",
"0	c #DBD4CF",
"a	c #DCD5CF",
"b	c #DCD4CF",
"c	c #DCD6CF",
"d	c #DCD6CE",
"e	c #DDD5CE",
"f	c #DDD5CF",
"g	c #DDD6CF",
"h	c #DDD6CE",
"i	c #DED6CF",
"j	c #DED6CE",
"k	c #DED7CF",
"l	c #DED7CE",
"m	c #DFD7CF",
"n	c #DFD6CF",
"o	c #DFD6CE",
".+@@@+###++.++.+...+",
"..####$$.##%$%.#$##%",
"&$*%&.&=.&==.&=*%&%%",
"&&**&&&&&&&&&&-&&-;*",
"&>->&&>>-,>,>'',->>&",
">,,>,>,,>,,,)),)!,,>",
",),,)),),!),),)~),))",
"){])])]^)~^/^)^(]]])",
"){]){{{{^{_{(^(__{/_",
"{_{__:<{{{{{_{[___[}",
"[<|_}{[_<{<<[1<}[_}1",
"[[2[1[<[[1[[13[33433",
"334[3[33335[[333363[",
"73663338689863093686",
"996aaa96a9899999b99a",
"ca99d9e9dd99aae9af9e",
"eeghhh9feghhghfheghf",
"fgggihjhgjigjgjgighi",
"iijiikljjigjiikjkjii",
"mikkjkjnjmmokknkmkml"};
